HIERARCHY
ROOT joint_Root
{
	OFFSET 0.0 0.0 0.0
	CHANNELS 6 Xposition Yposition Zposition Zrotation Xrotation Yrotation 
	JOINT Hips
	{
		OFFSET -17.1583 93.1646 452.98
		CHANNELS 6 Xposition Yposition Zposition Zrotation Xrotation Yrotation 
		JOINT Spine
		{
			OFFSET 15.7357 0.0 0.0
			CHANNELS 6 Xposition Yposition Zposition Zrotation Xrotation Yrotation 
			JOINT Chest
			{
				OFFSET 8.98455 -0.406207 0.0
				CHANNELS 6 Xposition Yposition Zposition Zrotation Xrotation Yrotation 
				JOINT Neck
				{
					OFFSET 16.3773 0.0 0.0
					CHANNELS 6 Xposition Yposition Zposition Zrotation Xrotation Yrotation 
					JOINT Head
					{
						OFFSET 6.45672 0.0 0.0
						CHANNELS 6 Xposition Yposition Zposition Zrotation Xrotation Yrotation 
						End Site
						{
							OFFSET 0.0 0.0 0.0
						}
					}
				}
				JOINT Shoulder_L
				{
					OFFSET 12.9942 -0.242716 4.98039
					CHANNELS 6 Xposition Yposition Zposition Zrotation Xrotation Yrotation 
					JOINT UpperArm_L
					{
						OFFSET 5.34809 0.0 0.0
						CHANNELS 6 Xposition Yposition Zposition Zrotation Xrotation Yrotation 
						JOINT LowerArm_L
						{
							OFFSET 24.3286 1.87007e-05 0.0
							CHANNELS 6 Xposition Yposition Zposition Zrotation Xrotation Yrotation 
							JOINT Hand_L
							{
								OFFSET 22.2916 0.0 0.0
								CHANNELS 6 Xposition Yposition Zposition Zrotation Xrotation Yrotation 
								End Site
								{
									OFFSET 0.0 0.0 0.0
								}
							}
						}
					}
				}
				JOINT Shoulder_R
				{
					OFFSET 12.9945 -0.242716 -4.98039
					CHANNELS 6 Xposition Yposition Zposition Zrotation Xrotation Yrotation 
					JOINT UpperArm_R
					{
						OFFSET -5.34813 0.0 0.0
						CHANNELS 6 Xposition Yposition Zposition Zrotation Xrotation Yrotation 
						JOINT LowerArm_R
						{
							OFFSET -24.3289 0.000322201 0.0
							CHANNELS 6 Xposition Yposition Zposition Zrotation Xrotation Yrotation 
							JOINT Hand_R
							{
								OFFSET -22.2915 -0.000108084 0.0
								CHANNELS 6 Xposition Yposition Zposition Zrotation Xrotation Yrotation 
								End Site
								{
									OFFSET 0.0 0.0 0.0
								}
							}
						}
					}
				}
			}
		}
		JOINT UpperLeg_L
		{
			OFFSET -2.19248 -6.46944 0.0
			CHANNELS 6 Xposition Yposition Zposition Zrotation Xrotation Yrotation 
			JOINT LowerLeg_L
			{
				OFFSET 39.0811 0.0 -1.23785e-05
				CHANNELS 6 Xposition Yposition Zposition Zrotation Xrotation Yrotation 
				JOINT Foot_L
				{
					OFFSET 40.9854 0.0 -1.26872e-05
					CHANNELS 6 Xposition Yposition Zposition Zrotation Xrotation Yrotation 
					JOINT Toes_L
					{
						OFFSET 11.7543 0.0 0.0
						CHANNELS 6 Xposition Yposition Zposition Zrotation Xrotation Yrotation 
						End Site
						{
							OFFSET 0.0 0.0 0.0
						}
					}
				}
			}
		}
		JOINT UpperLeg_R
		{
			OFFSET -2.19251 6.46944 0.0
			CHANNELS 6 Xposition Yposition Zposition Zrotation Xrotation Yrotation 
			JOINT LowerLeg_R
			{
				OFFSET -39.0811 -0.00228153 -0.0401928
				CHANNELS 6 Xposition Yposition Zposition Zrotation Xrotation Yrotation 
				JOINT Foot_R
				{
					OFFSET -40.9854 0.0 0.0
					CHANNELS 6 Xposition Yposition Zposition Zrotation Xrotation Yrotation 
					JOINT Toes_R
					{
						OFFSET -11.7543 0.0 0.0
						CHANNELS 6 Xposition Yposition Zposition Zrotation Xrotation Yrotation 
						End Site
						{
							OFFSET 0.0 0.0 0.0
						}
					}
				}
			}
		}
	}
}
MOTION
Frames:	4
Frame Time:	0.0333333
0.000000 0.000000 0.000000 0.000000 0.000000 -0.000000 -2.772280 81.633300 -472.936000 82.433700 -3.569040 -20.834300 15.735700 0.000005 -0.000001 98.289800 81.583100 -93.834200 8.984550 -0.406207 -0.000000 8.817510 2.456110 8.714620 16.377300 -0.000001 -0.000001 -15.021600 3.723800 1.190190 6.456720 -0.000001 -0.000000 -10.438700 6.807290 -5.627620 12.994200 -0.242716 4.980390 -92.515000 7.432600 -71.245100 5.348090 -0.000007 -0.000001 -58.741500 -12.772100 12.803800 24.328600 0.000019 0.000005 1.036990 44.171300 -1.488120 22.291600 -0.000001 0.000005 -15.429600 4.851950 10.318800 12.994500 -0.242716 -4.980390 89.930000 0.296341 -76.719800 -5.348130 -0.000001 -0.000004 -64.474700 9.897110 -15.950700 -24.328900 0.000322 -0.000009 0.470848 0.491886 -44.250400 -22.291500 -0.000108 -0.000004 7.059850 5.320470 -0.392263 -2.192480 -6.469440 -0.000000 -171.396000 -5.850540 -37.132800 39.081100 -0.000007 -0.000012 0.698819 -0.011274 89.075000 40.985400 -0.000006 -0.000013 -10.917400 8.026790 -39.734500 11.754300 -0.000000 0.000003 0.001637 0.034797 -15.165200 -2.192510 6.469440 -0.000001 -174.404000 -3.480000 143.853000 -39.081100 -0.002282 -0.040193 0.038261 -0.019382 61.069500 -40.985400 0.000008 0.000006 -8.894630 5.303620 -93.230900 -11.754300 -0.000006 -0.000006 0.002289 0.107590 -12.210200
0.000000 0.000000 0.000000 0.000000 0.000000 -0.000000 -2.369880 83.192100 -466.843000 85.061200 -3.023220 -20.981400 15.735700 0.000005 -0.000001 103.233000 81.624000 -99.913600 8.984550 -0.406207 -0.000000 8.452330 3.836420 6.349830 16.377300 -0.000001 -0.000001 -14.179500 2.666120 0.830306 6.456720 -0.000001 -0.000000 -9.749940 4.119440 -4.769580 12.994200 -0.242716 4.980390 -92.389400 6.717650 -70.367500 5.348090 -0.000007 -0.000001 -50.183500 -15.240100 17.831200 24.328600 0.000019 0.000005 1.951860 42.287500 -2.901160 22.291600 -0.000001 0.000005 -7.899020 4.754730 12.095200 12.994500 -0.242716 -4.980390 89.961500 0.163310 -76.738100 -5.348130 -0.000001 -0.000004 -62.857900 8.300420 -16.546900 -24.328900 0.000322 -0.000009 -1.106510 -0.540501 -63.736700 -22.291500 -0.000108 -0.000004 15.354600 5.448920 -4.534930 -2.192480 -6.469440 -0.000000 -173.793000 -3.683360 -47.528200 39.081100 -0.000007 -0.000012 0.601979 0.039712 93.773200 40.985400 -0.000006 -0.000013 -8.501970 6.273100 -46.438500 11.754300 -0.000000 0.000003 0.001929 0.044086 -14.788500 -2.192510 6.469440 -0.000001 -177.152000 0.287530 150.676000 -39.081100 -0.002282 -0.040193 0.055290 -0.036702 54.817700 -40.985400 0.000008 0.000006 -8.495910 7.316380 -90.147900 -11.754300 -0.000006 -0.000006 0.001423 0.028968 -15.398100
0.000000 0.000000 0.000000 0.000000 0.000000 -0.000000 -1.855650 85.470800 -460.034000 88.559600 -1.326280 -21.539200 15.735700 0.000005 -0.000001 104.935000 82.010200 -102.860000 8.984550 -0.406207 -0.000000 7.617340 4.099390 3.875060 16.377300 -0.000001 -0.000001 -13.411400 1.420900 0.726844 6.456720 -0.000001 -0.000000 -8.519750 1.716970 -3.618000 12.994200 -0.242716 4.980390 -91.981100 5.691440 -70.772700 5.348090 -0.000007 -0.000001 -44.229800 -15.845800 21.392200 24.328600 0.000019 0.000005 2.232540 33.323700 -4.059630 22.291600 -0.000001 0.000005 6.677870 4.549260 15.636900 12.994500 -0.242716 -4.980390 90.124400 -0.536479 -76.945100 -5.348130 -0.000001 -0.000004 -63.037600 5.145240 -16.343500 -24.328900 0.000322 -0.000009 -5.158960 -1.065180 -78.280500 -22.291500 -0.000108 -0.000004 19.467800 5.515320 -7.144230 -2.192480 -6.469440 -0.000000 -176.417000 -0.175823 -55.110300 39.081100 -0.000007 -0.000012 0.456808 0.012736 91.595800 40.985400 -0.000006 -0.000013 -7.731150 4.516240 -54.191800 11.754300 -0.000000 0.000003 0.002289 0.060154 -14.136900 -2.192510 6.469440 -0.000001 179.437000 4.500930 158.943000 -39.081100 -0.002282 -0.040193 0.066832 -0.063790 44.899800 -40.985400 0.000008 0.000006 -8.611230 8.149420 -83.691500 -11.754300 -0.000006 -0.000006 -0.006922 -0.078991 -19.788700
0.000000 0.000000 0.000000 0.000000 0.000000 -0.000000 -1.303260 88.233600 -452.807000 92.282500 0.419896 -23.256800 15.735700 0.000005 -0.000001 106.564000 82.973800 -105.856000 8.984550 -0.406207 -0.000000 5.689650 3.983400 1.217450 16.377300 -0.000001 -0.000001 -12.698400 0.101714 0.827322 6.456720 -0.000001 -0.000000 -6.770940 -0.437516 -2.222270 12.994200 -0.242716 4.980390 -91.378700 4.209870 -71.849900 5.348090 -0.000007 -0.000001 -40.568500 -18.766100 23.693100 24.328600 0.000019 0.000005 1.289140 21.258900 -3.549970 22.291600 -0.000001 0.000005 30.388600 4.367550 18.605400 12.994500 -0.242716 -4.980390 90.372500 -1.635090 -77.162800 -5.348130 -0.000001 -0.000004 -64.798800 2.414310 -14.843700 -24.328900 0.000322 -0.000009 -9.601510 -0.427520 -87.462200 -22.291500 -0.000108 -0.000004 20.023300 5.587650 -10.636500 -2.192480 -6.469440 -0.000000 -179.272000 2.850560 -60.077400 39.081100 -0.000007 -0.000012 0.292309 -0.035263 83.119800 40.985400 -0.000006 -0.000013 -6.488690 3.144410 -60.540100 11.754300 -0.000000 0.000003 0.002020 0.047470 -14.651200 -2.192510 6.469440 -0.000001 176.241000 7.929940 166.261000 -39.081100 -0.002282 -0.040193 0.067251 -0.096777 33.459400 -40.985400 0.000008 0.000006 -7.637670 6.213700 -72.052900 -11.754300 -0.000006 -0.000006 -0.039533 -0.258243 -27.179900
